<svg xmlns="http://www.w3.org/2000/svg" pointer-events="none" class="leaflet-zoom-animated" width="893" height="474" viewBox="-74 -39 893 474" style="transform: translate3d(-74px, -39px, 0px);"><g><path class="leaflet-interactive" stroke="black" stroke-opacity="1" stroke-width="2" stroke-linecap="round" stroke-linejoin="round" fill="#fff" fill-opacity="0.2" fill-rule="evenodd" d="M417 333L421 333L420 336L423 341L425 341L427 344L427 347L431 353L437 351L437 353L443 353L444 355L451 358L453 361L455 361L459 357L459 353L466 339L469 342L474 342L474 350L476 352L474 355L480 358L481 362L483 362L486 365L496 368L498 370L496 370L497 372L501 374L503 382L507 383L507 388L510 390L511 387L514 387L511 386L515 383L513 381L514 379L518 375L521 375L521 369L523 368L524 370L526 370L528 368L534 368L541 362L540 357L551 358L548 352L550 348L551 350L557 351L560 345L563 344L564 347L573 345L577 350L579 346L580 347L582 346L581 345L586 344L586 337L583 333L584 332L586 336L589 332L592 333L592 331L595 328L592 326L591 327L592 320L590 320L590 305L594 295L594 291L592 292L587 285L581 287L580 286L586 273L582 273L581 268L575 262L576 257L568 255L565 244L562 246L561 245L562 244L559 237L560 235L549 232L546 229L543 230L540 226L536 226L534 224L526 222L529 215L525 211L515 208L513 210L509 209L505 211L504 209L502 213L499 210L497 216L490 220L487 218L480 219L478 217L477 219L473 220L468 216L460 216L458 214L463 204L461 198L458 195L454 193L453 194L454 191L447 189L443 181L436 175L436 167L433 165L434 163L433 160L431 159L432 158L426 153L422 153L423 152L419 148L419 139L416 138L412 133L412 128L419 122L412 110L413 109L406 108L401 110L398 107L398 105L391 105L385 109L385 112L378 114L372 120L372 122L364 124L361 124L360 122L357 125L353 125L355 135L353 142L355 144L356 157L353 160L345 176L346 178L344 180L344 185L341 189L344 191L344 202L333 211L332 220L330 222L324 226L319 226L316 229L314 229L311 234L305 237L303 237L302 234L300 234L297 231L290 232L286 230L281 230L273 241L265 237L262 237L260 239L251 241L251 243L248 244L248 246L256 256L255 260L262 257L268 267L272 268L274 271L273 284L275 286L276 285L280 291L278 296L279 298L283 298L281 306L272 313L275 315L275 317L271 317L271 329L273 330L267 339L265 341L264 340L261 344L261 352L263 354L265 363L273 365L278 364L283 356L287 358L290 365L292 364L294 357L300 353L305 353L307 354L309 360L317 360L318 363L315 369L317 378L315 380L318 383L318 385L322 389L325 385L327 384L328 386L330 383L329 382L331 382L330 385L333 389L335 387L335 384L332 382L332 380L336 382L338 387L341 381L343 382L343 380L349 375L347 372L348 370L357 366L361 366L360 368L364 363L368 366L369 365L367 361L375 357L374 352L379 352L380 349L384 348L382 344L385 344L387 341L389 342L389 340L393 336L403 336L408 334L411 338L415 339L417 337L416 333zM451 190L451 191zM330 383L330 384zM474 349L474 349zM424 343L422 343L423 345L424 343z" id="成都市"/><path class="leaflet-interactive" stroke="#333" stroke-opacity="1" stroke-width="1" stroke-linecap="round" stroke-linejoin="round" stroke-dasharray="1,6" fill="#eee" fill-opacity="0.5" fill-rule="evenodd" d="M443 272L446 272L449 276L447 277L448 280L446 282L447 283L445 288L451 288L452 293L454 293L454 290L457 289L462 290L461 287L463 284L461 284L460 281L454 277L454 274L448 271L448 267L443 271z" id="锦江区"/><path class="leaflet-interactive" stroke="#333" stroke-opacity="1" stroke-width="1" stroke-linecap="round" stroke-linejoin="round" stroke-dasharray="1,6" fill="#eee" fill-opacity="0.5" fill-rule="evenodd" d="M448 267L442 265L440 269L437 266L438 265L434 265L432 263L434 262L433 261L431 260L429 261L430 262L428 262L423 256L421 256L413 266L422 270L432 269L434 271L435 270L442 272L447 268z" id="青羊区"/><path class="leaflet-interactive" stroke="#333" stroke-opacity="1" stroke-width="1" stroke-linecap="round" stroke-linejoin="round" stroke-dasharray="1,6" fill="#eee" fill-opacity="0.5" fill-rule="evenodd" d="M440 250L438 251L438 255L435 252L436 251L434 251L435 249L432 248L431 255L427 254L427 257L423 256L428 262L430 262L430 260L432 261L432 263L434 265L437 265L440 269L442 265L447 267L449 266L449 262L445 261L444 259L445 257L448 258L448 256L453 254L455 250L457 252L457 248L454 247L453 246L455 244L448 241L449 240L447 240L447 238L442 242L443 244L445 244L445 248L448 246L449 247L445 252L441 250zM425 245L425 243L423 243L422 246L424 245z" id="金牛区"/><path class="leaflet-interactive" stroke="#333" stroke-opacity="1" stroke-width="1" stroke-linecap="round" stroke-linejoin="round" stroke-dasharray="1,6" fill="#eee" fill-opacity="0.5" fill-rule="evenodd" d="M422 270L423 275L425 277L424 280L426 282L426 284L424 284L425 286L428 288L429 285L432 287L435 285L438 288L438 290L436 290L434 294L435 297L440 297L440 295L445 296L445 293L447 292L446 282L448 280L448 274L446 272L435 270L434 271L432 269L426 270L424 268L423 270z" id="武侯区"/><path class="leaflet-interactive" stroke="#333" stroke-opacity="1" stroke-width="1" stroke-linecap="round" stroke-linejoin="round" stroke-dasharray="1,6" fill="#eee" fill-opacity="0.5" fill-rule="evenodd" d="M448 267L448 270L454 274L456 278L461 278L462 274L459 268L460 269L462 266L465 267L468 264L472 265L475 263L473 262L473 258L467 259L464 254L462 256L461 253L456 253L457 252L455 250L453 254L448 256L448 258L445 257L445 261L449 261L449 266z" id="成华区"/><path class="leaflet-interactive" stroke="#333" stroke-opacity="1" stroke-width="1" stroke-linecap="round" stroke-linejoin="round" stroke-dasharray="1,6" fill="#eee" fill-opacity="0.5" fill-rule="evenodd" d="M475 264L469 264L465 267L462 266L460 268L461 269L459 269L461 272L461 278L457 278L460 281L460 283L463 284L461 287L462 290L460 290L460 292L465 297L468 305L473 310L477 311L479 309L478 308L486 302L489 305L491 305L492 300L494 303L494 307L498 307L498 305L503 306L505 301L507 300L507 298L504 297L506 290L505 284L509 282L510 279L511 280L514 276L514 271L511 275L510 274L512 266L510 264L508 264L507 266L504 265L503 262L493 259L491 256L480 258L480 262L478 262L476 266L474 265z" id="龙泉驿区"/><path class="leaflet-interactive" stroke="#333" stroke-opacity="1" stroke-width="1" stroke-linecap="round" stroke-linejoin="round" stroke-dasharray="1,6" fill="#eee" fill-opacity="0.5" fill-rule="evenodd" d="M466 216L465 220L461 225L462 228L464 226L474 227L475 231L476 230L477 232L474 233L474 235L479 245L481 246L479 251L483 253L485 251L489 251L493 258L503 262L503 264L507 267L508 264L510 264L514 270L515 269L513 267L519 269L520 265L522 264L519 262L520 256L519 255L519 257L517 257L519 253L518 245L517 244L514 246L512 244L510 246L508 243L510 242L506 244L501 243L498 231L496 233L495 231L500 230L502 224L499 222L498 223L495 217L490 220L487 218L480 219L478 217L477 219L473 220L472 218L471 219L467 216z" id="青白江区"/><path class="leaflet-interactive" stroke="#333" stroke-opacity="1" stroke-width="1" stroke-linecap="round" stroke-linejoin="round" stroke-dasharray="1,6" fill="#eee" fill-opacity="0.5" fill-rule="evenodd" d="M457 252L456 253L462 254L462 256L464 254L467 259L472 258L475 264L474 265L478 265L477 264L480 262L479 261L482 257L490 258L491 255L489 251L485 251L483 253L479 251L481 246L474 236L476 230L475 231L475 229L472 226L464 226L462 228L461 225L465 220L466 216L446 215L444 214L443 207L440 205L433 210L426 212L425 215L415 213L415 215L420 217L422 221L420 225L422 229L426 231L426 233L433 235L438 241L437 242L440 243L440 245L437 245L440 250L444 252L449 248L445 248L444 243L442 243L445 239L449 239L448 241L455 244L453 246L456 247L457 250z" id="新都区"/><path class="leaflet-interactive" stroke="#333" stroke-opacity="1" stroke-width="1" stroke-linecap="round" stroke-linejoin="round" stroke-dasharray="1,6" fill="#eee" fill-opacity="0.5" fill-rule="evenodd" d="M380 227L375 222L377 232L380 236L383 253L387 257L387 262L389 266L388 268L393 277L402 279L409 269L409 271L412 272L411 271L413 268L417 268L413 265L422 255L416 251L416 253L409 249L410 251L406 251L396 244L392 237L389 238L388 235L380 228z" id="温江区"/><path class="leaflet-interactive" stroke="#333" stroke-opacity="1" stroke-width="1" stroke-linecap="round" stroke-linejoin="round" stroke-dasharray="1,6" fill="#eee" fill-opacity="0.5" fill-rule="evenodd" d="M422 270L414 268L412 269L411 272L409 272L408 269L406 272L406 276L403 276L404 278L398 279L395 277L395 281L399 288L398 297L400 302L410 302L410 304L415 306L415 313L420 322L417 333L421 333L420 336L423 341L425 341L427 344L427 347L431 353L437 351L437 353L443 353L444 355L455 361L459 357L459 353L468 337L467 335L472 328L471 327L473 325L474 320L477 319L481 312L473 310L468 305L466 299L458 289L455 290L455 293L451 293L452 289L449 288L446 290L447 291L445 296L443 297L441 295L435 297L434 294L436 290L438 290L438 288L435 285L433 285L433 287L430 285L428 286L428 288L425 287L424 285L426 281L422 272L423 271zM424 343L422 343L423 345L424 343z" id="双流区"/><path class="leaflet-interactive" stroke="#333" stroke-opacity="1" stroke-width="1" stroke-linecap="round" stroke-linejoin="round" stroke-dasharray="1,6" fill="#eee" fill-opacity="0.5" fill-rule="evenodd" d="M431 249L425 245L422 245L428 234L425 232L425 230L422 230L420 226L422 223L420 219L421 217L406 210L403 211L403 213L401 213L400 210L394 209L391 206L389 207L389 214L387 219L386 218L388 222L383 223L383 226L380 227L382 231L387 234L389 238L392 237L395 244L399 245L406 251L410 251L409 249L415 253L418 253L422 257L426 257L429 254L431 256L431 250zM424 243L431 249L434 248L438 255L439 254L437 251L440 249L437 246L437 244L440 244L439 242L437 242L438 241L435 238L435 236L428 234z" id="郫都区"/><path class="leaflet-interactive" stroke="#333" stroke-opacity="1" stroke-width="1" stroke-linecap="round" stroke-linejoin="round" stroke-dasharray="1,6" fill="#eee" fill-opacity="0.5" fill-rule="evenodd" d="M417 333L420 322L415 313L416 310L413 304L406 301L400 302L398 298L393 300L395 303L385 304L383 309L384 310L378 317L378 319L386 329L387 334L383 338L384 339L389 339L395 335L403 336L408 334L411 338L415 339L417 337L416 333z" id="新津区"/><path class="leaflet-interactive" stroke="#333" stroke-opacity="1" stroke-width="1" stroke-linecap="round" stroke-linejoin="round" stroke-dasharray="1,6" fill="#eee" fill-opacity="0.5" fill-rule="evenodd" d="M591 301L594 295L594 291L592 292L587 285L581 287L580 286L586 273L582 273L581 268L575 262L576 257L568 255L565 244L562 246L561 245L562 244L559 234L549 232L546 229L543 230L540 226L536 226L534 224L526 222L529 215L525 211L520 209L515 208L513 210L509 209L505 211L504 209L502 213L499 210L498 211L496 219L498 223L499 222L502 224L502 226L499 230L495 230L497 233L498 231L499 233L499 237L501 239L500 242L505 244L510 241L510 246L512 244L513 246L518 244L519 253L517 257L519 257L519 255L520 256L519 262L522 264L519 267L519 269L515 267L513 267L515 270L512 268L511 269L510 274L511 275L513 271L514 273L512 280L510 279L509 282L511 284L522 283L526 279L528 279L527 278L529 276L534 276L535 273L537 273L538 276L540 275L543 278L547 278L551 281L554 280L558 282L559 285L556 289L557 292L565 296L565 300L570 302L571 307L574 305L578 305L579 301L591 301z" id="金堂县"/><path class="leaflet-interactive" stroke="#333" stroke-opacity="1" stroke-width="1" stroke-linecap="round" stroke-linejoin="round" stroke-dasharray="1,6" fill="#eee" fill-opacity="0.5" fill-rule="evenodd" d="M271 241L265 237L262 237L260 239L251 241L251 243L248 244L248 246L256 256L255 260L262 257L268 267L271 267L274 271L273 284L275 286L276 285L280 291L278 296L279 298L284 297L288 299L289 302L296 303L296 301L299 299L302 299L304 301L305 294L310 295L313 292L317 295L323 294L331 301L334 307L337 308L337 306L340 306L344 308L343 309L346 312L346 314L350 315L351 318L352 317L355 319L364 317L364 315L362 314L364 311L365 312L368 309L377 313L378 317L383 312L386 303L389 303L386 295L380 290L372 293L365 301L363 294L359 296L352 296L351 295L353 292L351 286L353 282L352 275L350 272L351 267L345 260L343 261L342 259L335 256L329 257L325 253L320 256L317 253L315 253L311 259L307 254L303 258L299 257L294 249L290 250L286 254L275 247L272 244L272 242z" id="大邑县"/><path class="leaflet-interactive" stroke="#333" stroke-opacity="1" stroke-width="1" stroke-linecap="round" stroke-linejoin="round" stroke-dasharray="1,6" fill="#eee" fill-opacity="0.5" fill-rule="evenodd" d="M330 384L330 386L333 389L335 387L335 384L332 382L332 380L334 380L338 387L341 381L343 382L343 380L349 375L347 372L348 370L357 366L361 366L360 368L364 363L368 366L369 365L367 361L375 357L375 347L368 344L368 342L366 343L363 341L353 343L351 341L351 337L345 339L340 338L338 339L339 340L337 340L337 338L330 341L327 338L323 341L324 342L318 343L311 347L311 350L309 348L309 351L306 353L308 359L317 360L318 363L315 369L315 372L317 374L317 378L315 380L322 389L325 385L327 384L328 386L330 383L329 382L331 382L330 383zM330 383L330 384z" id="蒲江县"/><path class="leaflet-interactive" stroke="#333" stroke-opacity="1" stroke-width="1" stroke-linecap="round" stroke-linejoin="round" stroke-dasharray="1,6" fill="#eee" fill-opacity="0.5" fill-rule="evenodd" d="M328 223L335 225L336 228L340 228L341 231L349 233L350 236L351 235L356 238L357 237L361 242L361 247L374 245L377 246L380 250L382 250L380 237L377 233L375 222L380 227L387 222L386 219L388 217L389 207L392 205L392 201L386 194L387 192L382 183L392 180L385 172L385 168L383 166L384 163L381 162L376 157L374 152L381 138L379 134L380 131L377 128L376 123L373 119L372 122L369 123L368 122L361 124L360 122L357 125L353 125L355 135L353 142L355 144L356 157L353 160L345 176L346 178L344 180L344 185L341 189L344 191L344 202L333 211L332 220L330 222z" id="都江堰市"/><path class="leaflet-interactive" stroke="#333" stroke-opacity="1" stroke-width="1" stroke-linecap="round" stroke-linejoin="round" stroke-dasharray="1,6" fill="#eee" fill-opacity="0.5" fill-rule="evenodd" d="M459 216L458 214L463 204L461 198L458 195L454 193L453 194L454 191L447 189L443 181L436 175L436 167L433 165L434 163L433 160L431 159L432 158L426 153L422 153L423 152L419 148L419 139L416 138L412 133L412 128L419 122L412 110L413 109L406 108L401 110L398 107L398 105L391 105L386 108L385 112L378 114L373 119L380 131L379 134L381 137L381 140L376 146L374 153L376 157L384 163L383 166L385 172L389 176L388 178L393 180L382 183L387 191L386 194L392 202L391 206L394 209L398 209L401 213L403 213L403 211L406 210L411 213L424 215L427 211L434 210L437 206L440 205L443 207L445 215L458 215zM451 190L451 191z" id="彭州市"/><path class="leaflet-interactive" stroke="#333" stroke-opacity="1" stroke-width="1" stroke-linecap="round" stroke-linejoin="round" stroke-dasharray="1,6" fill="#eee" fill-opacity="0.5" fill-rule="evenodd" d="M374 351L379 352L380 349L384 348L382 344L385 344L387 341L389 342L389 340L386 337L385 339L383 338L387 334L386 329L378 319L377 313L370 311L369 309L365 312L364 311L362 314L364 317L363 318L351 318L351 316L348 315L343 309L344 308L340 306L336 308L334 307L327 297L323 294L319 293L318 295L314 292L310 295L304 295L304 301L298 299L296 303L289 302L288 299L284 297L282 299L283 302L281 306L272 313L275 315L275 317L271 317L271 329L273 330L267 339L265 341L264 340L261 344L261 352L263 354L265 363L273 365L278 364L283 356L287 358L290 365L292 364L294 357L298 354L309 351L309 348L311 350L311 348L317 345L317 343L322 343L327 338L330 341L337 338L337 340L339 340L339 338L345 339L350 337L352 338L351 341L353 343L359 341L363 341L366 343L367 342L375 347L376 349L374 351z" id="邛崃市"/><path class="leaflet-interactive" stroke="#333" stroke-opacity="1" stroke-width="1" stroke-linecap="round" stroke-linejoin="round" stroke-dasharray="1,6" fill="#eee" fill-opacity="0.5" fill-rule="evenodd" d="M328 223L324 226L319 226L316 229L314 229L311 234L305 237L303 237L302 234L300 234L297 231L290 232L286 230L281 230L273 241L271 241L272 244L274 247L277 247L281 252L284 252L286 254L291 249L293 249L295 250L295 252L297 252L299 257L303 258L307 254L310 259L315 253L317 253L320 256L325 253L329 257L338 257L342 261L344 260L351 267L350 272L353 282L351 286L353 292L351 294L352 296L358 296L363 294L365 298L364 301L373 293L380 290L386 295L389 303L395 303L393 301L394 299L399 298L399 288L389 270L387 258L383 251L380 251L378 247L374 245L361 248L361 243L357 237L356 238L350 235L348 232L342 231L341 228L337 228L335 225L328 224z" id="崇州市"/><path class="leaflet-interactive" stroke="#333" stroke-opacity="1" stroke-width="1" stroke-linecap="round" stroke-linejoin="round" stroke-dasharray="1,6" fill="#eee" fill-opacity="0.5" fill-rule="evenodd" d="M474 349L474 351L475 350L476 352L474 355L480 358L481 362L498 370L496 370L498 373L501 374L503 382L507 383L507 388L510 390L511 387L514 387L511 386L515 383L513 381L514 379L518 375L521 375L521 369L523 368L524 370L526 370L528 368L534 368L541 362L540 357L551 358L548 352L550 348L551 350L557 351L560 345L563 344L564 347L573 345L577 350L579 346L580 347L582 346L581 345L586 344L586 337L583 333L584 332L586 336L589 332L592 333L592 331L595 328L592 326L591 327L591 301L580 301L578 302L578 305L571 307L572 305L565 300L565 296L557 292L556 290L559 285L558 282L554 280L551 281L548 278L544 278L535 273L534 276L529 276L527 278L528 279L526 279L524 282L517 284L512 284L508 282L505 284L506 290L504 296L507 299L504 302L503 306L498 305L498 307L494 307L494 303L492 300L490 301L492 301L492 305L486 302L478 308L479 309L476 312L481 312L477 320L473 322L471 327L472 328L467 335L467 340L469 342L474 342L474 348zM474 349L474 349z" id="简阳市"/></g></svg>